<?xml version="1.0" encoding="UTF-8" standalone="no"?>
<svg
   xmlns:dc="http://purl.org/dc/elements/1.1/"
   xmlns:cc="http://creativecommons.org/ns#"
   xmlns:rdf="http://www.w3.org/1999/02/22-rdf-syntax-ns#"
   xmlns:svg="http://www.w3.org/2000/svg"
   xmlns="http://www.w3.org/2000/svg"
   xmlns:sodipodi="http://sodipodi.sourceforge.net/DTD/sodipodi-0.dtd"
   xmlns:inkscape="http://www.inkscape.org/namespaces/inkscape"
   viewBox="0 0 450 450"
   id="svg2"
   version="1.1"
   inkscape:version="0.91 r13725"
   sodipodi:docname="arms.svg">
  <metadata
     id="metadata10">
    <rdf:RDF>
      <cc:Work
         rdf:about="">
        <dc:format>image/svg+xml</dc:format>
        <dc:type
           rdf:resource="http://purl.org/dc/dcmitype/StillImage" />
      </cc:Work>
    </rdf:RDF>
  </metadata>
  <defs
     id="defs8" />
  <sodipodi:namedview
     pagecolor="#ffffff"
     bordercolor="#666666"
     borderopacity="1"
     objecttolerance="10"
     gridtolerance="10"
     guidetolerance="10"
     inkscape:pageopacity="0"
     inkscape:pageshadow="2"
     inkscape:window-width="712"
     inkscape:window-height="480"
     id="namedview6"
     showgrid="false"
     inkscape:zoom="0.52444444"
     inkscape:cx="225"
     inkscape:cy="225"
     inkscape:window-x="0"
     inkscape:window-y="0"
     inkscape:window-maximized="0"
     inkscape:current-layer="svg2" />
  <path
     id="path6"
     d="m 172.21,163.93 c 0,0 52.79,-22.73 52.79,-22.73 0,0 50.89,21.92 50.89,21.92 -1.18,-0.15 -2.4,-0.23 -3.71,-0.23 -8.27,0 -12.43,2.8 -16.46,5.51 -2.64,1.78 -5.22,3.47 -8.98,4.35 2.73,-2.81 3.39,-5.98 3.43,-6.18 0,0 0.47,-2.52 0.47,-2.52 0,0 -51.83,0 -51.83,0 0,0 0.19,0.99 0.19,0.99 -2.16,0.98 -3.96,2.18 -5.71,3.36 -3.81,2.56 -7.42,4.99 -14.77,4.99 -2.33,0 -4.4,-0.26 -6.31,-0.76 0,0 0,-8.7 0,-8.7 0,0 0,0 0,0 z m 23.5,122.45 c 3.56,-2.38 7.16,-4.5 14.03,-4.5 7.34,0 10.94,2.42 14.76,4.99 4.02,2.7 8.19,5.5 16.45,5.5 3.96,0 6.96,-0.65 9.48,-1.61 -6.71,7.12 -15.03,13.72 -25.43,19.44 -12.5,-6.87 -22.01,-15.02 -29.29,-23.82 0,0 0,0 0,0 z m -17.19,-32.66 c 8.27,0 12.43,-2.8 16.45,-5.51 0.31,-0.2 0.61,-0.4 0.91,-0.6 2.08,4.21 4.68,8.44 7.88,12.52 -4.55,0.96 -7.56,2.95 -10.47,4.9 -2.61,1.76 -5.09,3.42 -8.72,4.32 -2.61,-5.17 -4.67,-10.42 -6.3,-15.64 0.09,0 0.16,0.01 0.25,0.01 0,0 0,0 0,0 z m 0,-19.33 c 5.18,0 8.75,-1.1 11.68,-2.59 0.94,4.11 2.36,8.53 4.37,13.06 -0.43,0.28 -0.85,0.56 -1.28,0.85 -3.82,2.56 -7.42,4.99 -14.76,4.99 -0.42,0 -0.77,-0.04 -1.16,-0.06 -1.57,-5.62 -2.67,-11.19 -3.43,-16.59 1.44,0.22 2.96,0.34 4.58,0.34 0,0 0,0 0,0 z m 11.36,-41.09 c 0.3,1.8 0.74,3.56 1.14,5.16 0.69,2.77 1.44,5.86 1.69,8.98 -3.61,2.42 -7.22,4.61 -14.19,4.61 -2.3,0 -4.35,-0.26 -6.24,-0.74 -0.06,-3.51 -0.07,-6.81 -0.07,-9.82 0,0 0,-6.41 0,-6.41 1.94,0.44 4.03,0.66 6.31,0.66 5.16,0 8.66,-1.11 11.36,-2.44 z m 48.63,-20.74 c 0,0 -1.67,0.37 -1.67,0.37 0,0 0,26.38 0,26.38 0,0 1.27,0.56 1.27,0.56 4.38,1.91 16.13,8.4 17.91,15.42 0.09,0.33 0.14,0.73 0.2,1.1 -0.17,0.11 -0.33,0.22 -0.5,0.33 -3.82,2.57 -7.43,4.99 -14.77,4.99 -7.34,0 -10.95,-2.42 -14.76,-4.99 -4.03,-2.71 -8.19,-5.5 -16.45,-5.5 -8.26,0 -12.42,2.79 -16.45,5.5 -0.04,0.03 -0.09,0.05 -0.13,0.08 0.08,-0.53 0.16,-1.05 0.27,-1.51 1.78,-7.01 13.54,-13.51 17.92,-15.42 0,0 1.27,-0.56 1.27,-0.56 0,0 0,-26.38 0,-26.38 0,0 -1.67,-0.37 -1.67,-0.37 -3.47,-0.75 -5.38,-2.67 -6.4,-4.27 0,0 40.36,0 40.36,0 -1.03,1.6 -2.93,3.52 -6.4,4.27 0,0 0,0 0,0 z m 39.28,-6.02 c 0,0 0,16.25 0,16.25 -1.75,-0.34 -3.57,-0.57 -5.61,-0.57 -5.86,0 -9.67,1.43 -12.79,3.19 -0.75,-2.48 -2.36,-4.72 -5.42,-6.39 -2.82,-1.55 -7.2,-2.4 -12.9,1.04 0,0 0,-3.66 0,-3.66 8.18,-0.03 12.33,-2.8 16.33,-5.5 3.82,-2.56 7.43,-4.99 14.78,-4.99 2.07,0 3.89,0.24 5.61,0.63 0,0 0,0 0,0 z m 0,35.58 c -1.75,-0.34 -3.58,-0.57 -5.61,-0.57 -7.51,0 -11.63,2.31 -15.34,4.76 0.33,-2.73 0.99,-5.42 1.6,-7.87 0.75,-2.99 1.62,-6.49 1.46,-9.83 3.02,-1.86 6.48,-3.37 12.28,-3.37 2.07,0 3.89,0.24 5.61,0.63 0,0 0,15.62 0,15.62 0,0 0,0.63 0,0.63 0,0 0,0 0,0 z m -5.61,18.75 c -5.14,0 -8.69,1.09 -11.61,2.55 0.3,-3.77 0.12,-6.95 -0.45,-9.18 -0.44,-1.72 -1.27,-3.37 -2.36,-4.92 3.7,-2.47 7.3,-4.75 14.42,-4.75 2.06,0 3.89,0.23 5.6,0.62 -0.01,4.87 -0.09,10.33 -0.46,16.16 -1.61,-0.28 -3.29,-0.48 -5.14,-0.48 0,0 0,0 0,0 z m -16.46,24.84 c -0.59,0.4 -1.18,0.79 -1.78,1.17 3.38,-7.02 5.35,-13.91 6.22,-19.78 3,-1.8 6.43,-3.2 12.02,-3.2 1.79,0 3.39,0.19 4.93,0.49 -0.41,5.1 -1.04,10.45 -2.07,15.94 -0.93,-0.09 -1.88,-0.14 -2.86,-0.13 -8.27,0 -12.43,2.8 -16.46,5.51 z m -59.45,-8.02 c 3.39,-2.23 6.96,-4.13 13.47,-4.13 7.34,0 10.94,2.42 14.76,4.99 4.02,2.71 8.19,5.51 16.45,5.51 4.56,0 7.85,-0.86 10.55,-2.06 -1.11,2.61 -2.44,5.25 -3.98,7.87 -1.84,0.51 -3.96,0.83 -6.57,0.83 -7.34,0 -10.95,-2.43 -14.76,-4.99 -4.03,-2.71 -8.19,-5.51 -16.45,-5.51 -5.06,0 -8.57,1.06 -11.47,2.49 -0.74,-1.68 -1.42,-3.36 -2,-5 0,0 0,0 0,0 z m -1.3,-8.8 c 3.82,-2.57 7.43,-5 14.77,-5 7.34,0 10.94,2.43 14.76,5 4.02,2.7 8.19,5.5 16.45,5.5 6.86,0 10.89,-1.93 14.37,-4.14 -0.53,2.38 -1.23,4.87 -2.14,7.45 -2.99,1.84 -6.42,3.34 -12.23,3.34 -7.34,0 -10.95,-2.43 -14.76,-5 -4.03,-2.7 -8.19,-5.5 -16.45,-5.5 -6.91,0 -10.95,1.96 -14.44,4.19 -0.53,-1.79 -0.96,-3.52 -1.31,-5.19 0.33,-0.22 0.66,-0.44 0.98,-0.65 0,0 0,0 0,0 z m -5.4,-0.19 c -2.78,1.53 -6.04,2.67 -11.05,2.67 -1.8,0 -3.44,-0.16 -4.98,-0.46 -0.69,-5.78 -1.02,-11.33 -1.18,-16.47 1.9,0.42 3.93,0.62 6.16,0.62 4.99,0 8.47,-1.02 11.35,-2.43 -0.22,0.53 -0.4,1.07 -0.54,1.62 -0.81,3.2 -0.83,8.35 0.24,14.45 0,0 0,0 0,0 z m 66.5,-2.55 c -0.12,0.08 -0.23,0.15 -0.35,0.23 -3.82,2.57 -7.42,4.99 -14.77,4.99 -7.34,0 -10.95,-2.42 -14.76,-4.99 -4.03,-2.71 -8.19,-5.51 -16.45,-5.51 -8.18,0 -12.34,2.75 -16.33,5.43 -0.31,-2.09 -0.47,-4.03 -0.48,-5.77 0.68,-0.44 1.38,-0.86 2.05,-1.31 3.81,-2.56 7.42,-4.99 14.76,-4.99 7.34,0 10.94,2.43 14.76,5 4.02,2.7 8.19,5.5 16.45,5.5 7.67,0 11.81,-2.42 15.58,-4.93 0.03,1.88 -0.13,4.03 -0.46,6.35 0,0 0,0 0,0 z m -4.98,-41.86 c -3.07,-1.68 -6.75,0.31 -10.02,3.23 0,0 0,-2.3 0,-2.3 4.18,-3.29 7.84,-4.15 10.87,-2.49 4.98,2.73 4.18,7.58 2.39,14.7 -0.51,2.07 -1.05,4.33 -1.44,6.68 -0.52,-0.44 -1.05,-0.87 -1.58,-1.28 0.38,-2.02 0.83,-3.96 1.31,-5.86 1.52,-6.04 2.62,-10.41 -1.53,-12.68 0,0 0,0 0,0 z m -10.02,12.29 c 0,0 0,-3.03 0,-3.03 4.07,-4.58 7.11,-6.03 7.99,-5.55 0.84,0.46 1.19,1.03 -0.55,7.98 -0.33,1.3 -0.67,2.73 -0.99,4.2 -2.64,-1.68 -5.04,-2.93 -6.45,-3.6 0,0 0,0 0,0 z m -32.68,-9.05 c -3.27,-2.92 -6.95,-4.92 -10.02,-3.24 -4.15,2.27 -3.05,6.64 -1.52,12.72 0.47,1.86 0.92,3.8 1.3,5.82 -0.54,0.41 -1.07,0.84 -1.59,1.28 -0.38,-2.36 -0.92,-4.62 -1.44,-6.71 -1.79,-7.09 -2.58,-11.94 2.4,-14.67 3.03,-1.66 6.69,-0.8 10.87,2.49 0,0 0,2.31 0,2.31 z m -6.45,12.65 c -0.33,-1.48 -0.67,-2.91 -1,-4.24 -1.74,-6.91 -1.38,-7.48 -0.54,-7.94 0.88,-0.48 3.92,0.98 7.99,5.56 0,0 0,3.02 0,3.02 -1.41,0.67 -3.81,1.92 -6.45,3.6 0,0 0,0 0,0 z m 12.23,72.2 c 0,0 1.86,-0.22 1.86,-0.22 0,0 0,-5.26 0,-5.26 0,0 -0.71,-0.63 -0.71,-0.63 -7.05,-6.2 -12.21,-13.56 -15.79,-20.83 2.61,-1.3 5.7,-2.22 10.21,-2.22 7.34,0 10.94,2.43 14.76,4.99 4.02,2.71 8.19,5.51 16.45,5.51 1.62,0 3.04,-0.14 4.38,-0.33 -3.03,4.55 -6.72,8.95 -11.19,12.88 0,0 -0.72,0.63 -0.72,0.63 0,0 0.01,5.26 0.01,5.26 0,0 1.86,0.22 1.86,0.22 2.27,0.28 5.55,1.41 5.55,2.76 0,1.88 -7.98,3.73 -16.11,3.73 -8.13,0 -16.11,-1.85 -16.11,-3.73 0,-1.35 3.28,-2.48 5.55,-2.76 z M 241.62,270 c -1.24,-0.7 -2.6,-1.15 -3.71,-1.42 5.7,-5.21 10.1,-11.02 13.48,-16.88 2.28,-1 4.17,-2.25 6.01,-3.49 3.82,-2.56 7.43,-4.99 14.78,-4.99 0.79,0.01 1.53,0.04 2.25,0.09 -1.14,5.39 -2.67,10.87 -4.73,16.33 -6.65,0.5 -10.38,2.98 -13.98,5.4 -3.69,2.48 -7.22,4.81 -14.1,4.96 0,0 0,0 0,0 z M 199.73,168.04 c 0.83,2.23 3.07,6.37 8.66,8.21 0,0 0,3.81 0,3.81 -5.71,-3.44 -10.08,-2.59 -12.9,-1.04 -4.9,2.68 -6.1,6.81 -5.95,11.06 -2.49,1.37 -5.79,2.64 -11.02,2.64 -2.33,0 -4.4,-0.26 -6.31,-0.76 0,0 0,-16.2 0,-16.2 1.94,0.44 4.02,0.65 6.31,0.65 8.27,0 12.43,-2.8 16.45,-5.51 1.55,-1.04 3.06,-2.03 4.76,-2.86 0,0 0,0 0,0 z m -5.92,115.98 c -3,-3.89 -5.58,-7.88 -7.8,-11.94 3.75,-1.06 6.4,-2.82 8.97,-4.54 3.1,-2.09 6.08,-4.06 11.01,-4.73 1.71,1.98 3.53,3.92 5.56,5.77 -2.77,0.68 -7.16,2.41 -7.16,6.56 0,1.61 0.77,2.88 1.97,3.91 -5.78,0.62 -9.27,2.77 -12.55,4.97 0,0 0,0 0,0 z m 61.92,0.34 c -3.82,2.57 -7.43,4.99 -14.78,4.99 -7.34,0 -10.95,-2.42 -14.76,-4.99 -0.63,-0.42 -1.27,-0.84 -1.92,-1.26 0.15,0 0.32,0.01 0.46,0.01 4.77,0 20.34,-0.58 20.34,-7.97 0,-0.88 -0.23,-1.63 -0.57,-2.31 5.98,-0.67 9.51,-3 12.91,-5.29 3.1,-2.08 6.1,-4.05 11.04,-4.73 -3.02,7.27 -7.03,14.45 -12.33,21.29 -0.13,0.09 -0.26,0.17 -0.39,0.26 0,0 0,0 0,0 z m 46.16,84.55 c -8.11,0 -16.06,-2.18 -22.99,-6.31 -0.68,-0.41 -1.52,-0.39 -2.2,0.02 -0.69,0.43 -1.41,0.88 -2.15,1.35 -6.24,3.94 -14.77,9.34 -30.19,12.91 -0.88,0.2 -1.53,0.94 -1.63,1.83 -0.1,0.89 0.38,1.75 1.18,2.14 16.32,7.9 28.25,20.7 34.46,28.47 0,0 -52.45,-24.96 -52.45,-24.96 -0.57,-0.27 -1.26,-0.27 -1.83,0 0,0 -52.46,24.96 -52.46,24.96 6.2,-7.76 18.12,-20.56 34.47,-28.47 0.8,-0.39 1.28,-1.25 1.18,-2.14 -0.1,-0.89 -0.75,-1.63 -1.63,-1.83 -15.44,-3.58 -23.97,-8.98 -30.2,-12.92 -0.74,-0.47 -1.46,-0.92 -2.15,-1.34 -0.67,-0.42 -1.51,-0.43 -2.19,-0.02 -6.93,4.13 -14.88,6.31 -22.99,6.31 -17.55,0 -41.44,-12.36 -44.28,-35.66 30.21,22.68 66.74,8.48 73.87,5.35 20.47,15.88 32.93,16.06 33.47,16.06 1.16,0 2.11,-0.95 2.11,-2.11 0,0 0,-7.57 0,-7.57 0,-6.72 -4.64,-9.59 -4.84,-9.71 0,0 -10.61,-6.37 -10.61,-6.37 0,0 8.08,-3.36 8.08,-3.36 0.27,-0.11 5.81,-2.5 7.1,-8.23 2.6,1.65 5.27,3.27 8.14,4.81 0,0 3.84,2.07 3.84,2.07 0,0 3.84,-2.07 3.84,-2.07 2.87,-1.54 5.55,-3.16 8.15,-4.81 1.29,5.73 6.83,8.12 7.1,8.23 0,0 8.07,3.36 8.07,3.36 0,0 -10.61,6.38 -10.61,6.38 -0.2,0.11 -4.83,2.98 -4.83,9.7 0,0 0,7.57 0,7.57 0,1.16 0.94,2.11 2.11,2.11 0.53,0 13,-0.18 33.47,-16.06 7.13,3.14 43.65,17.33 73.87,-5.35 -2.85,23.3 -26.74,35.66 -44.28,35.66 0,0 0,0 0,0 z m -77.88,-54.52 c 0,0 0.99,0.53 0.99,0.53 0,0 0.98,-0.53 0.98,-0.53 55.96,-30.07 55.96,-83.95 55.96,-112.9 0,0 0,-40.29 0,-40.29 0,0 -56.94,-24.52 -56.94,-24.52 0,0 -56.94,24.52 -56.94,24.52 0,0 0,40.29 0,40.29 0,28.95 0,82.83 55.95,112.9 0,0 0,0 0,0 z M 165.18,157.97 c 0,0 59.82,-25.76 59.82,-25.76 0,0 59.81,25.76 59.81,25.76 0,0 0,43.52 0,43.52 0,27.86 0,85.84 -57.93,116.97 0,0 -1.88,1.01 -1.88,1.01 0,0 -1.88,-1.01 -1.88,-1.01 -57.94,-31.13 -57.94,-89.11 -57.94,-116.97 0,0 0,-43.52 0,-43.52 z m -7.08,-50.3 c 0,0 7.91,-15.88 7.91,-15.88 0,0 117.97,0 117.97,0 0,0 7.91,15.88 7.91,15.88 -4.6,-0.93 -8.83,-3.34 -11.99,-6.96 0,0 -1.54,-1.76 -1.54,-1.76 0,0 -1.54,1.76 -1.54,1.76 -4.12,4.71 -10.05,7.4 -16.25,7.4 -6.21,0 -12.13,-2.69 -16.25,-7.4 0,0 -1.54,-1.76 -1.54,-1.76 0,0 -1.54,1.76 -1.54,1.76 -4.11,4.71 -10.03,7.4 -16.24,7.4 -6.21,0 -12.13,-2.69 -16.25,-7.4 0,0 -1.54,-1.76 -1.54,-1.76 0,0 -1.54,1.76 -1.54,1.76 -4.11,4.71 -10.03,7.4 -16.24,7.4 -6.21,0 -12.13,-2.69 -16.25,-7.4 0,0 -1.54,-1.76 -1.54,-1.76 0,0 -1.54,1.76 -1.54,1.76 -3.16,3.62 -7.39,6.03 -12,6.96 0,0 0,0 0,0 z m 10.98,-24.75 c 0,0 111.83,0 111.83,0 -0.02,1.56 0.27,3.14 0.99,4.64 0,0 -113.8,0 -113.8,0 0.71,-1.5 1.01,-3.08 0.98,-4.64 0,0 0,0 0,0 z m -66.53,23.88 c 4.47,3.48 10,5.41 15.74,5.41 6.64,0 13.01,-2.6 17.78,-7.19 4.77,4.59 11.14,7.19 17.79,7.19 6.64,0 13.01,-2.6 17.78,-7.19 4.78,4.59 11.14,7.19 17.79,7.19 6.65,0 13.01,-2.6 17.78,-7.19 4.78,4.59 11.14,7.19 17.79,7.19 6.65,0 13.01,-2.6 17.78,-7.19 4.78,4.59 11.14,7.19 17.79,7.19 6.64,0 13.01,-2.6 17.79,-7.19 4.77,4.59 11.14,7.19 17.78,7.19 6.65,0 13.01,-2.6 17.79,-7.19 4.77,4.59 11.14,7.19 17.78,7.19 5.74,0 11.27,-1.93 15.74,-5.42 0,0 0,21.85 0,21.85 -3.67,-1.84 -8.92,-3.04 -16.33,-2.27 -5.75,-0.19 -11.42,-3.01 -15.65,-7.85 0,0 -1.54,-1.76 -1.54,-1.76 0,0 -1.54,1.76 -1.54,1.76 -4.12,4.7 -10.04,7.4 -16.25,7.4 -6.21,0 -12.13,-2.7 -16.24,-7.4 0,0 -1.54,-1.76 -1.54,-1.76 0,0 -1.54,1.76 -1.54,1.76 -4.12,4.7 -10.04,7.4 -16.25,7.4 -6.21,0 -12.13,-2.7 -16.25,-7.4 0,0 -3.08,2.7 -3.08,2.7 4.9,5.59 11.94,8.8 19.33,8.8 6.65,0 13.01,-2.6 17.79,-7.19 4.77,4.59 11.13,7.19 17.78,7.19 6.65,0 13.01,-2.59 17.78,-7.18 2.31,2.27 4.93,4.06 7.71,5.35 -0.35,0.1 -0.69,0.18 -1.04,0.28 -29.73,8.48 -28.65,21.68 -28.39,23.37 0,0 4.3,41.98 4.3,41.98 -7,19.12 -4.96,51.01 -4.84,52.75 0,0 0.21,-0.02 0.21,-0.02 -0.13,1.15 -0.22,2.31 -0.22,3.49 0,0.98 0.06,1.94 0.15,2.9 -0.23,1.35 -1.58,9.54 -9.16,57.22 -0.8,5 0.11,9.02 2.7,11.93 4.26,4.79 11.42,4.56 11.63,4.54 0,0 48.85,0 48.85,0 0.24,0.3 0.49,0.58 0.75,0.85 -31.82,27.1 -73.2,6.98 -73.62,6.77 -0.73,-0.37 -1.61,-0.28 -2.26,0.23 -14.96,11.83 -25.48,14.89 -29.75,15.68 0,0 0,-5.18 0,-5.18 0,-4.25 2.69,-6.02 2.78,-6.08 0,0 14.21,-8.53 14.21,-8.53 0.69,-0.41 1.08,-1.17 1.03,-1.97 -0.06,-0.8 -0.57,-1.49 -1.3,-1.8 0,0 -11.94,-4.96 -11.94,-4.96 -0.2,-0.09 -4.78,-2.11 -4.78,-6.78 0,0 -0.26,0 -0.26,0 48.26,-33.34 48.29,-86.73 48.29,-113.37 0,0 0,-46.26 0,-46.26 0,0 -63.97,-27.54 -63.97,-27.54 0,0 -63.97,27.54 -63.97,27.54 0,0 0,46.26 0,46.26 0,26.64 0.03,80.03 48.29,113.37 0,0 -0.26,0 -0.26,0 0,4.67 -4.59,6.69 -4.77,6.77 0,0 -11.94,4.97 -11.94,4.97 -0.74,0.31 -1.24,1 -1.3,1.8 -0.06,0.8 0.33,1.56 1.02,1.97 0,0 14.2,8.53 14.2,8.53 0.03,0.02 2.79,1.8 2.79,6.08 0,0 0,5.17 0,5.17 -4.28,-0.78 -14.79,-3.84 -29.75,-15.67 -0.64,-0.51 -1.52,-0.6 -2.26,-0.23 -0.41,0.21 -41.76,20.37 -73.62,-6.77 0.25,-0.28 0.5,-0.55 0.75,-0.85 0,0 48.75,0 48.75,0 0.32,0 7.47,0.25 11.72,-4.54 2.59,-2.91 3.5,-6.93 2.71,-11.94 -7.54,-47.42 -8.92,-55.78 -9.16,-57.19 0.09,-0.97 0.15,-1.94 0.15,-2.93 0,-1.17 -0.09,-2.33 -0.22,-3.48 0,0 0.21,0.02 0.21,0.02 0.12,-1.74 2.16,-33.63 -4.84,-52.75 0,0 4.29,-41.98 4.29,-41.98 0.27,-1.69 1.34,-14.9 -28.39,-23.37 -0.55,-0.16 -1.07,-0.29 -1.6,-0.43 3.08,-1.3 5.95,-3.08 8.26,-5.23 4.77,4.61 11.14,7.2 17.8,7.2 6.64,0 13.01,-2.59 17.78,-7.18 4.78,4.59 11.14,7.18 17.79,7.18 7.39,0 14.43,-3.2 19.32,-8.8 0,0 -3.08,-2.69 -3.08,-2.69 -4.11,4.7 -10.03,7.4 -16.24,7.4 -6.21,0 -12.13,-2.7 -16.25,-7.4 0,0 -1.54,-1.77 -1.54,-1.77 0,0 -1.54,1.77 -1.54,1.77 -4.11,4.7 -10.03,7.4 -16.24,7.4 -6.22,0 -12.14,-2.7 -16.25,-7.4 0,0 -1.54,-1.77 -1.54,-1.77 0,0 -1.54,1.77 -1.54,1.77 -3.89,4.45 -10.88,7.57 -17.14,7.71 -6.63,-0.47 -11.42,0.68 -14.84,2.4 0,0 0,-21.83 0,-21.83 0,0 0,0 0,0 z m 50.7,-26.49 c 0.74,-1.47 2.01,-2.56 3.57,-3.07 1.56,-0.52 3.22,-0.4 4.7,0.34 1.46,0.74 2.55,2.01 3.07,3.57 0.52,1.57 0.39,3.24 -0.35,4.71 0,0 -11.06,22.22 -11.06,22.22 -4.33,-0.14 -8.48,-1.57 -11.94,-4.08 0,0 12.01,-23.69 12.01,-23.69 0,0 0,0 0,0 z m -7.87,6.18 c -5.12,-1.73 -8.16,-5.4 -10.16,-9.68 3.27,2.27 7.48,3.94 12.54,4.98 0,0 -2.38,4.7 -2.38,4.7 z m -6.29,12.39 c -6.28,-3.6 -10.15,-9.58 -12.05,-18.69 -5.43,-26 -7.98,-38.15 -8.98,-42.9 0,0 3.23,0 3.23,0 0.81,3.99 3.69,18.23 6.06,28.17 0,0 0.23,0.97 0.23,0.97 1.88,7.98 4.68,19.75 15.86,23.87 0,0 -4.35,8.58 -4.35,8.58 0,0 0,0 0,0 z m -25.47,152.56 c -0.04,-0.46 -0.07,-0.93 -0.07,-1.4 0,-0.86 0.08,-1.72 0.23,-2.55 0.22,-1.15 -0.54,-2.25 -1.69,-2.47 -1.15,-0.2 -2.25,0.55 -2.47,1.7 -0.19,1.08 -0.29,2.2 -0.29,3.32 0,0.61 0.02,1.21 0.08,1.81 0.11,1.09 1.03,1.91 2.11,1.91 0.06,0 0.14,0 0.2,-0.01 1.17,-0.11 2.02,-1.15 1.9,-2.31 0,0 0,0 0,0 z m 11.67,-15.37 c 0.1,0 0.2,0 0.31,-0.02 1.31,-0.19 2.67,-0.2 3.95,-0.03 1.16,0.15 2.22,-0.67 2.37,-1.82 0.16,-1.16 -0.66,-2.23 -1.82,-2.38 -1.67,-0.22 -3.42,-0.21 -5.12,0.04 -1.16,0.17 -1.95,1.25 -1.78,2.41 0.15,1.05 1.05,1.8 2.09,1.8 0,0 0,0 0,0 z m 10.61,30.12 c 0.37,0 0.74,-0.1 1.07,-0.29 1.48,-0.87 2.83,-1.94 4.02,-3.19 0.81,-0.85 0.77,-2.19 -0.07,-2.99 -0.85,-0.81 -2.19,-0.78 -2.99,0.07 -0.92,0.96 -1.96,1.79 -3.1,2.46 -1.01,0.59 -1.34,1.89 -0.75,2.89 0.39,0.67 1.1,1.05 1.82,1.05 0,0 0,0 0,0 z m -17.44,-5.43 c -1,-0.87 -1.88,-1.87 -2.6,-2.98 -0.64,-0.97 -1.95,-1.25 -2.93,-0.61 -0.98,0.64 -1.25,1.95 -0.61,2.93 0.94,1.44 2.08,2.74 3.38,3.86 0.4,0.35 0.89,0.52 1.38,0.52 0.59,0 1.18,-0.25 1.6,-0.74 0.77,-0.88 0.67,-2.22 -0.22,-2.98 0,0 0,0 0,0 z m 20.24,-19.59 c 0.42,0.52 1.03,0.79 1.65,0.79 0.46,0 0.93,-0.16 1.32,-0.47 0.91,-0.74 1.05,-2.07 0.32,-2.98 -1.07,-1.34 -2.34,-2.52 -3.74,-3.51 -0.96,-0.67 -2.28,-0.44 -2.95,0.52 -0.67,0.95 -0.44,2.27 0.51,2.94 1.09,0.77 2.06,1.68 2.89,2.71 0,0 0,0 0,0 z m 2.85,6.09 c 0.18,0.91 0.27,1.84 0.27,2.78 0,1.33 -0.18,2.65 -0.55,3.91 -0.32,1.13 0.33,2.3 1.45,2.62 0.2,0.06 0.39,0.08 0.59,0.08 0.92,0 1.76,-0.6 2.03,-1.53 0.47,-1.65 0.71,-3.35 0.71,-5.08 0,-1.22 -0.12,-2.43 -0.35,-3.61 -0.23,-1.15 -1.33,-1.89 -2.49,-1.66 -1.15,0.23 -1.89,1.34 -1.66,2.49 0,0 0,0 0,0 z m -10.95,18.91 c -0.05,-1.16 -0.99,-2.06 -2.22,-2 -1.31,0.06 -2.65,-0.06 -3.93,-0.36 -1.13,-0.27 -2.27,0.44 -2.54,1.58 -0.27,1.14 0.44,2.28 1.58,2.54 1.37,0.32 2.78,0.49 4.2,0.49 0.3,0 0.61,-0.01 0.91,-0.03 1.16,-0.06 2.06,-1.05 2,-2.22 z m -13.71,-30.99 c -1.39,1.01 -2.63,2.21 -3.69,3.56 -0.72,0.93 -0.55,2.26 0.37,2.98 0.38,0.3 0.84,0.44 1.3,0.44 0.63,0 1.25,-0.28 1.67,-0.81 0.81,-1.05 1.77,-1.97 2.84,-2.75 0.94,-0.69 1.15,-2.01 0.46,-2.96 -0.69,-0.94 -2.01,-1.15 -2.95,-0.46 0,0 0,0 0,0 z m -15.63,14.86 c 0,-14.58 11.85,-26.44 26.43,-26.44 14.57,0 26.43,11.86 26.43,26.44 0,14.58 -11.86,26.44 -26.43,26.44 -14.58,0 -26.43,-11.86 -26.43,-26.44 z m 38.51,-28.19 c -3.03,-1.3 -6.32,-2.11 -9.76,-2.37 5.04,-3.57 8.01,-7.56 9.75,-11.06 0.45,3.76 0.6,8.46 0.01,13.43 z M 34.12,268.62 c 0,0 3.2,-9.84 3.2,-9.84 2.43,-0.19 7.55,-0.83 14.43,-3.04 0,0 -1.3,-4.03 -1.3,-4.03 -6.81,2.19 -11.81,2.73 -13.77,2.87 0,0 -2.71,-3.07 -2.71,-3.07 0,0 2.21,-2.98 2.21,-2.98 0.34,0.01 0.72,0.02 1.19,0.02 4.99,0 17.55,-0.86 36.71,-7.87 0,0 -1.46,-3.98 -1.46,-3.98 -20.01,7.33 -32.57,7.68 -36.16,7.6 0,0 -2.43,-4.59 -2.43,-4.59 6.54,-4.53 10.83,-10.82 12.15,-12.9 0,0 15.51,-5.14 15.51,-5.14 0.63,-0.21 1.13,-0.71 1.34,-1.35 0.21,-0.64 0.1,-1.34 -0.28,-1.89 0,0 -5.72,-8.05 -5.72,-8.05 0,0 -3.45,2.46 -3.45,2.46 0,0 4.06,5.71 4.06,5.71 0,0 -12.13,4.02 -12.13,4.02 0,0 -14.26,-17.8 -14.26,-17.8 26.68,-4.76 42.61,-14.51 47.32,-17.73 6.5,6.19 14.32,9.36 23.3,9.36 10.86,0 19.36,-4.68 19.72,-4.87 0.58,-0.33 0.97,-0.91 1.06,-1.57 0.09,-0.66 -0.13,-1.32 -0.61,-1.79 -8.23,-8.12 -16.94,-12.23 -25.88,-12.23 -7.21,0 -12.8,2.71 -15.96,4.71 0,0 -1.31,-6.75 -1.31,-6.75 3.17,-5.57 18.56,-32.67 19.63,-35.55 0.49,-1.32 5.48,-12.72 29.73,-5.81 26.9,7.67 25.39,18.51 25.38,18.58 -0.02,0.07 -0.03,0.15 -0.04,0.22 0,0 -3.6,35.28 -3.6,35.28 -1.58,-2.36 -3.42,-4.24 -5.59,-5.44 -2.55,-1.42 -5.1,-1.77 -7.56,-1.01 -4.53,1.38 -6.95,6.06 -7.05,6.26 0,0 3.77,1.92 3.77,1.92 0.02,-0.04 1.73,-3.28 4.51,-4.13 1.35,-0.42 2.74,-0.2 4.27,0.66 2.91,1.61 5.15,4.98 6.87,9.35 0,0 -0.03,0.32 -0.03,0.32 0,0 0.16,0.01 0.16,0.01 4.18,10.92 5.21,27.96 5.15,40.61 -2.55,-4.59 -6.26,-8.43 -10.71,-11.19 2.03,-13.37 -1.47,-24.89 -1.62,-25.39 -0.32,-1 -1.3,-1.63 -2.34,-1.46 -1.03,0.15 -1.8,1.05 -1.8,2.09 0,0.59 -0.27,14.54 -20.13,21.75 0,0 0.01,0.02 0.01,0.02 -12.12,4.1 -20.87,15.56 -20.87,29.05 0,3.11 0.47,6.11 1.34,8.95 -25.41,10.28 -55.25,10 -64.25,9.63 0,0 0,0 0,0 z m 63.59,-87.93 c 2.53,0 4.58,2.27 4.58,5.05 0,2.79 -2.05,5.06 -4.58,5.06 -2.52,0 -4.58,-2.27 -4.58,-5.06 0,-2.78 2.06,-5.05 4.58,-5.05 z m 8.11,1.42 c 3.71,1.48 7.39,3.79 11,6.97 -2.74,1.13 -7.34,2.66 -12.72,3.01 1.49,-1.66 2.42,-3.89 2.42,-6.35 0,-1.29 -0.25,-2.51 -0.7,-3.63 z m -16.1,7.49 c -2.75,-1.25 -5.34,-2.93 -7.71,-5.08 1.7,-1.14 4.55,-2.69 8.21,-3.6 -0.82,1.41 -1.32,3.05 -1.32,4.82 0,1.38 0.31,2.68 0.82,3.86 z m 33.4,90.74 c 0,0 3.22,20.18 3.22,20.18 -3.87,-0.05 -11.97,-0.26 -22.15,-1 -0.53,-0.04 -1.08,-0.16 -1.63,-0.31 -0.54,-11.15 -0.71,-25.28 -0.76,-32.81 4.66,7.36 12.35,12.59 21.32,13.94 z m -56.71,4.56 c 0,0 18.54,5.86 18.54,5.86 2.02,2.42 10.81,12.39 18.93,12.98 14.45,1.05 24.89,1.06 24.95,1.04 0.62,0 1.21,-0.27 1.61,-0.75 0.4,-0.47 0.57,-1.09 0.47,-1.7 0,0 -3.44,-21.63 -3.44,-21.63 0.07,0.01 0.14,0.02 0.22,0.02 12.34,0 22.97,-7.35 27.83,-17.89 1.25,7.8 3.53,22.03 7.66,47.99 0.59,3.68 0.02,6.52 -1.67,8.44 -2.9,3.29 -8.34,3.13 -8.49,3.14 0,0 -49.87,0 -49.87,0 -0.67,0 -1.3,0.31 -1.7,0.85 -4.18,5.64 -10.39,7.16 -10.49,7.19 -0.04,0.01 -3.56,0.92 -7.67,1.18 -0.16,-3.04 -0.73,-6.3 -1.84,-9.79 3.51,-0.88 7.79,-3.37 8.65,-8.95 0.64,-4.1 -2.01,-10.31 -18.24,-16.54 -6.21,-2.38 -6.03,-8.32 -5.45,-11.44 0,0 0,0 0,0 z m 0.89,71.77 c 3.24,-22.59 -12.31,-33.35 -19.67,-37.11 0,0 9.86,-6.64 9.86,-6.64 0.87,-0.58 1.17,-1.72 0.72,-2.67 -5.03,-10.54 -14.39,-11.01 -17,-10.65 0,0 -10.42,0 -10.42,0 0.93,-3.76 4.31,-4.03 5.06,-4.04 0,0 4.01,0 4.01,0 1.01,0 1.87,-0.71 2.07,-1.69 0.85,-4.17 4.48,-7.08 8.82,-7.08 0.14,0 0.37,-0.03 0.52,-0.06 0.02,-0.01 1.92,-0.38 6.01,1.33 2.09,0.88 3.71,1.54 4.78,1.95 0.57,4.06 2.78,8.17 8.28,10.28 12.13,4.66 16,9.22 15.58,11.94 -0.85,5.51 -7.09,5.75 -7.34,5.76 -0.69,0.02 -1.33,0.36 -1.71,0.93 -0.39,0.57 -0.47,1.29 -0.23,1.93 7.26,19.29 -3.13,30.91 -9.34,35.82 0,0 0,0 0,0 z M 322.41,80.19 c -1.86,8.92 -5.59,14.83 -11.62,18.45 0,0 -4.33,-8.53 -4.33,-8.53 10.79,-4.27 13.55,-15.8 15.42,-23.67 0,0 0.23,-0.98 0.23,-0.98 2.37,-9.94 5.25,-24.18 6.05,-28.17 0,0 3.23,0 3.23,0 -0.99,4.75 -3.55,16.9 -8.98,42.9 0,0 0,0 0,0 z m 65.53,209.82 c 1.07,-0.41 2.69,-1.07 4.78,-1.95 2.9,-1.21 4.7,-1.38 5.48,-1.38 0.37,0 0.46,0.02 0.45,0.03 0.19,0.05 0.4,0.08 0.6,0.08 4.34,0 7.97,2.91 8.82,7.07 0.2,0.99 1.07,1.7 2.07,1.7 0,0 4,0 4,0 0.76,0.01 4.13,0.28 5.06,4.03 0,0 -10.54,0 -10.54,0 -1.4,-0.16 -3.9,-0.04 -6.47,0.84 -3.12,1.07 -7.46,3.65 -10.4,9.82 -0.46,0.95 -0.15,2.09 0.72,2.67 0,0 9.86,6.64 9.86,6.64 -7.36,3.76 -22.91,14.51 -19.67,37.11 -6.22,-4.91 -16.6,-16.53 -9.34,-35.82 0.24,-0.64 0.15,-1.36 -0.23,-1.93 -0.39,-0.57 -1.03,-0.92 -1.71,-0.93 -0.27,-0.01 -6.49,-0.2 -7.35,-5.76 -0.41,-2.72 3.46,-7.29 15.58,-11.94 5.5,-2.11 7.71,-6.22 8.29,-10.28 0,0 0,0 0,0 z m -22.89,0.75 c 0,0 18.55,-5.87 18.55,-5.87 0.59,3.12 0.79,9.05 -5.46,11.45 -16.22,6.23 -18.88,12.43 -18.24,16.54 0.86,5.58 5.14,8.07 8.64,8.95 -1.09,3.48 -1.67,6.73 -1.83,9.75 -4.11,-0.29 -7.64,-1.14 -7.71,-1.15 -0.07,-0.02 -6.23,-1.49 -10.46,-7.18 -0.39,-0.53 -1.02,-0.85 -1.69,-0.85 0,0 -49.96,0 -49.96,0 -0.05,-0.01 -5.49,0.15 -8.4,-3.14 -1.7,-1.91 -2.26,-4.76 -1.67,-8.44 4.13,-25.97 6.4,-40.2 7.66,-48 4.85,10.55 15.49,17.9 27.83,17.9 0.07,0 0.15,-0.01 0.22,-0.02 0,0 -3.45,21.63 -3.45,21.63 -0.09,0.61 0.08,1.23 0.48,1.7 0.4,0.48 0.99,0.75 1.61,0.75 0.11,-0.02 10.5,0.01 24.94,-1.04 8.12,-0.59 16.92,-10.56 18.94,-12.98 0,0 0,0 0,0 z m -45.07,-71.28 c -3.44,0.26 -6.72,1.07 -9.75,2.37 -0.59,-4.97 -0.44,-9.67 0,-13.43 1.74,3.5 4.72,7.49 9.75,11.06 z m 3.67,81.04 c 0,0 3.23,-20.18 3.23,-20.18 8.96,-1.35 16.66,-6.58 21.32,-13.94 -0.05,7.53 -0.22,21.66 -0.77,32.81 -0.55,0.15 -1.09,0.27 -1.62,0.31 -10.18,0.74 -18.28,0.94 -22.16,1 z M 371.12,173.9 c 0,0 -1.33,6.75 -1.33,6.75 -3.15,-2 -8.75,-4.71 -15.96,-4.71 -8.93,0 -17.64,4.11 -25.88,12.23 -0.47,0.47 -0.7,1.13 -0.61,1.79 0.09,0.66 0.49,1.24 1.07,1.57 0.36,0.19 8.85,4.87 19.72,4.87 8.97,0 16.8,-3.18 23.3,-9.36 4.7,3.22 20.64,12.97 47.31,17.73 0,0 -14.26,17.8 -14.26,17.8 0,0 -12.12,-4.02 -12.12,-4.02 0,0 4.05,-5.71 4.05,-5.71 0,0 -3.45,-2.46 -3.45,-2.46 0,0 -5.71,8.05 -5.71,8.05 -0.39,0.55 -0.49,1.25 -0.28,1.89 0.21,0.63 0.7,1.14 1.34,1.35 0,0 15.51,5.13 15.51,5.13 1.31,2.09 5.6,8.37 12.15,12.91 0,0 -2.43,4.59 -2.43,4.59 -3.59,0.08 -16.16,-0.27 -36.17,-7.6 0,0 -1.45,3.98 -1.45,3.98 19.16,7.01 31.71,7.87 36.71,7.87 0.47,0 0.85,-0.01 1.18,-0.02 0,0 2.22,2.98 2.22,2.98 0,0 -2.71,3.07 -2.71,3.07 -1.96,-0.14 -6.96,-0.68 -13.77,-2.87 0,0 -1.3,4.02 -1.3,4.02 6.88,2.21 12,2.86 14.43,3.05 0,0 3.2,9.84 3.2,9.84 -9,0.37 -38.84,0.65 -64.25,-9.63 0.87,-2.84 1.34,-5.84 1.34,-8.95 0,-13.49 -8.76,-24.95 -20.87,-29.05 0,0 0.01,-0.02 0.01,-0.02 -19.86,-7.21 -20.13,-21.16 -20.13,-21.73 0.01,-1.05 -0.75,-1.95 -1.79,-2.11 -1.02,-0.16 -2.03,0.46 -2.35,1.46 -0.15,0.5 -3.65,12.02 -1.62,25.39 -4.45,2.76 -8.16,6.61 -10.71,11.2 -0.06,-12.65 0.97,-29.69 5.15,-40.61 0,0 0.17,-0.02 0.17,-0.02 0,0 -0.04,-0.32 -0.04,-0.32 1.73,-4.37 3.96,-7.73 6.87,-9.35 1.52,-0.85 2.91,-1.07 4.25,-0.67 2.79,0.85 4.51,4.11 4.53,4.15 0,0 3.77,-1.93 3.77,-1.93 -0.1,-0.2 -2.52,-4.88 -7.05,-6.26 -2.46,-0.75 -5,-0.41 -7.56,1.01 -2.17,1.21 -4.01,3.08 -5.59,5.45 0,0 -3.63,-35.47 -3.63,-35.47 -0.02,-0.11 -1.53,-10.95 25.37,-18.62 24.25,-6.91 29.24,4.49 29.73,5.81 1.06,2.88 16.47,29.98 19.64,35.55 0,0 0,0 0,0 z m -18.83,16.89 c -2.53,0 -4.58,-2.26 -4.58,-5.05 0,-2.78 2.05,-5.05 4.58,-5.05 2.52,0 4.57,2.27 4.57,5.05 0,2.79 -2.05,5.05 -4.57,5.05 z m -8.81,-5.05 c 0,2.46 0.93,4.69 2.41,6.35 -5.36,-0.35 -9.96,-1.88 -12.71,-3.01 3.61,-3.18 7.29,-5.49 11,-6.97 -0.45,1.12 -0.7,2.34 -0.7,3.63 0,0 0,0 0,0 z m 16.3,-4.81 c 3.64,0.92 6.49,2.46 8.2,3.59 -2.37,2.16 -4.95,3.83 -7.71,5.08 0.52,-1.18 0.82,-2.48 0.82,-3.86 0,-1.76 -0.49,-3.4 -1.31,-4.81 z M 314.23,76.81 c -1.94,4.15 -4.85,7.73 -9.69,9.52 0,0 -2.36,-4.65 -2.36,-4.65 4.85,-1.05 8.89,-2.68 12.05,-4.87 0,0 0,0 0,0 z m -17.48,3.51 c 0,0 12.02,23.68 12.02,23.68 -3.48,2.51 -7.63,3.94 -11.95,4.08 0,0 -11.07,-22.23 -11.07,-22.23 -0.73,-1.46 -0.86,-3.13 -0.34,-4.7 0.52,-1.56 1.61,-2.83 3.07,-3.57 1.48,-0.74 3.14,-0.86 4.7,-0.34 1.56,0.51 2.83,1.6 3.57,3.08 z m 25.56,143.27 c 14.57,0 26.43,11.87 26.43,26.45 0,14.58 -11.86,26.44 -26.43,26.44 -14.57,0 -26.43,-11.86 -26.43,-26.44 0,-14.58 11.86,-26.45 26.43,-26.45 z m 11.15,17.76 c 0.42,0.54 1.04,0.82 1.67,0.82 0.46,0 0.92,-0.15 1.3,-0.45 0.92,-0.72 1.09,-2.05 0.37,-2.97 -1.06,-1.36 -2.3,-2.56 -3.68,-3.57 -0.95,-0.69 -2.27,-0.48 -2.96,0.46 -0.69,0.95 -0.48,2.27 0.46,2.96 1.07,0.78 2.03,1.71 2.84,2.75 0,0 0,0 0,0 z m -7.91,22.46 c -1.06,0.25 -2.15,0.37 -3.25,0.37 -0.19,0.01 -0.46,0 -0.69,-0.01 -1.22,-0.06 -2.16,0.84 -2.22,2 -0.06,1.17 0.84,2.17 2.01,2.22 0.28,0.02 0.57,0.03 0.84,0.03 1.43,-0.02 2.87,-0.16 4.27,-0.49 1.14,-0.26 1.84,-1.4 1.58,-2.54 -0.27,-1.14 -1.39,-1.85 -2.54,-1.58 0,0 0,0 0,0 z m 10.67,-16.32 c 0.15,0.83 0.23,1.69 0.23,2.55 0,0.47 -0.03,0.94 -0.07,1.4 -0.11,1.17 0.73,2.2 1.9,2.31 0.07,0.01 0.14,0.01 0.2,0.01 1.08,0 2,-0.81 2.11,-1.91 0.06,-0.59 0.09,-1.2 0.09,-1.81 0,-1.12 -0.11,-2.23 -0.3,-3.31 -0.22,-1.15 -1.32,-1.91 -2.47,-1.7 -1.14,0.21 -1.9,1.31 -1.69,2.46 0,0 0,0 0,0 z M 324.4,236.05 c 0.11,0.02 0.21,0.02 0.32,0.02 1.03,0 1.93,-0.75 2.08,-1.8 0.18,-1.16 -0.62,-2.24 -1.78,-2.41 -1.69,-0.25 -3.44,-0.26 -5.12,-0.04 -1.16,0.15 -1.97,1.22 -1.82,2.38 0.15,1.15 1.2,1.97 2.37,1.82 1.28,-0.17 2.64,-0.16 3.95,0.03 z m 12.67,21.12 c -0.99,-0.64 -2.29,-0.36 -2.93,0.61 -0.73,1.11 -1.6,2.11 -2.61,2.98 -0.88,0.76 -0.98,2.1 -0.22,2.98 0.42,0.49 1.01,0.74 1.61,0.74 0.48,0 0.98,-0.17 1.38,-0.52 1.3,-1.12 2.44,-2.42 3.38,-3.86 0.64,-0.97 0.37,-2.29 -0.61,-2.93 0,0 0,0 0,0 z m -27.99,2.55 c -0.85,0.8 -0.88,2.14 -0.07,2.99 1.18,1.24 2.53,2.32 4.01,3.19 0.34,0.19 0.71,0.29 1.07,0.29 0.73,0 1.43,-0.37 1.83,-1.05 0.59,-1 0.25,-2.3 -0.75,-2.89 -1.15,-0.67 -2.18,-1.5 -3.1,-2.46 -0.8,-0.85 -2.15,-0.88 -2.99,-0.07 0,0 0,0 0,0 z m -2.39,-3.07 c 0.19,0 0.39,-0.02 0.58,-0.08 1.12,-0.32 1.78,-1.49 1.45,-2.62 -0.36,-1.26 -0.55,-2.58 -0.55,-3.91 0,-0.94 0.09,-1.87 0.28,-2.78 0.22,-1.15 -0.52,-2.26 -1.66,-2.49 -1.17,-0.23 -2.26,0.51 -2.49,1.66 -0.24,1.18 -0.36,2.39 -0.36,3.61 0,1.73 0.24,3.44 0.71,5.08 0.27,0.93 1.12,1.53 2.04,1.53 0,0 0,0 0,0 z m 2.96,-14.7 c 0.62,0 1.23,-0.27 1.65,-0.78 0.83,-1.04 1.81,-1.94 2.89,-2.71 0.95,-0.67 1.18,-1.99 0.51,-2.95 -0.67,-0.95 -1.99,-1.18 -2.95,-0.51 -1.4,0.99 -2.66,2.17 -3.74,3.51 -0.73,0.91 -0.59,2.24 0.32,2.97 0.39,0.32 0.86,0.47 1.32,0.47 0,0 0,0 0,0 z m -226.4,93.89 c 4.58,-0.28 8.54,-1.25 8.7,-1.29 0.21,-0.05 3.65,-0.88 7.45,-3.52 1.52,28.71 29.58,42.12 48.72,42.12 8.43,0 16.71,-2.16 24.03,-6.26 0.34,0.21 0.68,0.43 1.04,0.65 5.73,3.63 13.32,8.43 26.13,12.08 -22.63,12.8 -35.54,33.16 -36.12,34.08 -0.5,0.8 -0.41,1.82 0.22,2.53 0.62,0.7 1.64,0.9 2.48,0.5 0,0 59.1,-28.12 59.1,-28.12 0,0 59.1,28.12 59.1,28.12 0.29,0.14 0.6,0.21 0.91,0.21 0.59,0 1.16,-0.25 1.58,-0.71 0.62,-0.71 0.71,-1.73 0.21,-2.53 -0.58,-0.92 -13.49,-21.28 -36.12,-34.08 12.8,-3.65 20.39,-8.45 26.12,-12.07 0.36,-0.23 0.71,-0.45 1.06,-0.66 7.31,4.1 15.59,6.26 24.03,6.26 19.13,0 47.19,-13.41 48.71,-42.12 3.79,2.64 7.22,3.47 7.41,3.51 0.19,0.05 4.15,1.02 8.74,1.3 1.36,18.33 17.82,27.2 18.03,27.31 0.3,0.16 0.64,0.24 0.98,0.24 0.46,0 0.92,-0.15 1.31,-0.45 0.65,-0.52 0.94,-1.37 0.74,-2.18 -7.37,-29.41 18.47,-38.44 19.58,-38.81 0.76,-0.26 1.31,-0.93 1.42,-1.73 0.11,-0.79 -0.24,-1.59 -0.91,-2.04 0,0 -11.44,-7.7 -11.44,-7.7 4.44,-7.42 11.29,-6.75 11.87,-6.67 0.16,0.02 0.31,0.03 0.48,0.02 0,0 12.74,0 12.74,0 1.17,0 2.12,-0.95 2.12,-2.12 0,-8.52 -6.87,-10.39 -9.52,-10.39 0,0 -2.41,0 -2.41,0 -1.8,-5.09 -6.68,-8.66 -12.26,-8.76 -1.01,-0.19 -3.73,-0.36 -8.39,1.6 -1.33,0.55 -2.34,0.97 -3.12,1.29 -0.17,-1.5 -0.51,-2.86 -0.9,-3.96 -0.39,-1.07 -1.55,-1.64 -2.63,-1.3 0,0 -21.26,6.73 -21.26,6.73 -0.4,0.12 -0.76,0.37 -1.02,0.69 -1.73,2.18 -5.98,6.77 -10.4,9.58 0.53,-12.3 0.65,-27.24 0.68,-33.31 20.73,7.82 43.28,9.14 56.08,9.14 6.04,0 9.91,-0.29 10.39,-0.33 0.65,-0.05 1.24,-0.4 1.6,-0.94 0.35,-0.54 0.45,-1.21 0.25,-1.83 0,0 -4.14,-12.68 -4.14,-12.68 0,0 3.71,-4.21 3.71,-4.21 0.66,-0.75 0.71,-1.86 0.11,-2.66 0,0 -3.11,-4.2 -3.11,-4.2 0,0 3.28,-6.19 3.28,-6.19 0.53,-0.99 0.19,-2.22 -0.77,-2.8 -6.06,-3.69 -10.37,-9.51 -12.03,-12 0,0 16.49,-20.58 16.49,-20.58 0.47,-0.59 0.6,-1.38 0.32,-2.09 -0.27,-0.7 -0.9,-1.21 -1.64,-1.32 -28.2,-4.39 -45.18,-14.93 -49.41,-17.82 0,0 1.85,-9.43 1.85,-9.43 0.09,-0.5 0.01,-1.02 -0.24,-1.46 -7.23,-12.68 -18.98,-33.57 -19.73,-35.6 -0.24,-0.64 -1.27,-3.07 -3.91,-5.47 0,0 0,-34.8 0,-34.8 0,0 -3.58,4.1 -3.58,4.1 -4.12,4.7 -10.04,7.4 -16.25,7.4 -6.21,0 -12.13,-2.7 -16.24,-7.4 0,0 -0.08,-0.09 -0.08,-0.09 5.67,-4.28 9.3,-10.61 11.16,-19.57 7.52,-35.99 9.52,-45.43 9.52,-45.44 0,0 0.55,-2.55 0.55,-2.55 0,0 -11.94,0 -11.94,0 0,0 -0.34,1.69 -0.34,1.69 -2.56,12.59 -3.98,19.26 -6.31,29.58 -0.01,0.05 -0.03,0.1 -0.04,0.14 0,0 -0.01,0.06 -0.01,0.06 -1.9,8.34 -10.33,11.82 -17.85,13.25 -1.28,-2.14 -3.23,-3.77 -5.62,-4.56 -1.95,-0.65 -4,-0.69 -5.94,-0.17 0,0 -17.36,-34.51 -17.36,-34.51 0,0 -3.78,1.9 -3.78,1.9 0,0 17.36,34.51 17.36,34.51 -1.27,1.02 -2.23,2.31 -2.9,3.74 0,0 -113.79,0 -113.79,0 -0.66,-1.43 -1.61,-2.73 -2.89,-3.74 0,0 17.36,-34.51 17.36,-34.51 0,0 -3.78,-1.9 -3.78,-1.9 0,0 -17.36,34.51 -17.36,34.51 -1.94,-0.52 -3.99,-0.48 -5.94,0.17 -2.43,0.8 -4.41,2.46 -5.68,4.66 -7.65,-1.38 -16.39,-4.83 -18.34,-13.35 0,0 -0.01,-0.06 -0.01,-0.06 -0.01,-0.03 -0.02,-0.07 -0.02,-0.11 -2.37,-10.49 -3.8,-17.16 -6.33,-29.6 0,0 -0.34,-1.7 -0.34,-1.7 0,0 -11.93,0 -11.93,0 0,0 0.54,2.56 0.54,2.56 0.01,0 2.01,9.44 9.52,45.44 1.9,9.12 5.63,15.52 11.49,19.8 -4.11,4.61 -9.97,7.26 -16.1,7.26 -6.21,0 -12.14,-2.7 -16.25,-7.41 0,0 -3.58,-4.1 -3.58,-4.1 0,0 0,34.81 0,34.81 -2.64,2.39 -3.67,4.83 -3.91,5.46 -0.75,2.04 -12.5,22.92 -19.73,35.61 -0.25,0.44 -0.33,0.95 -0.24,1.45 0,0 1.85,9.44 1.85,9.44 -4.22,2.89 -21.14,13.41 -49.41,17.81 -0.75,0.12 -1.38,0.62 -1.65,1.33 -0.27,0.7 -0.15,1.5 0.32,2.09 0,0 16.5,20.57 16.5,20.57 -1.66,2.49 -5.95,8.31 -12.03,12 -0.96,0.58 -1.3,1.81 -0.77,2.8 0,0 3.28,6.19 3.28,6.19 0,0 -3.12,4.2 -3.12,4.2 -0.59,0.8 -0.54,1.91 0.12,2.66 0,0 3.7,4.21 3.7,4.21 0,0 -4.13,12.69 -4.13,12.69 -0.2,0.62 -0.1,1.29 0.25,1.83 0.36,0.54 0.95,0.88 1.6,0.94 0.48,0.03 4.35,0.33 10.39,0.33 12.8,0 35.35,-1.32 56.07,-9.14 0.03,6.07 0.15,21.01 0.68,33.3 -4.42,-2.8 -8.66,-7.4 -10.39,-9.57 -0.26,-0.33 -0.62,-0.57 -1.02,-0.7 0,0 -21.26,-6.73 -21.26,-6.73 -1.09,-0.34 -2.25,0.24 -2.63,1.31 -0.39,1.09 -0.73,2.45 -0.91,3.95 -0.77,-0.32 -1.79,-0.73 -3.11,-1.29 -4.67,-1.96 -7.4,-1.78 -8.39,-1.6 -5.67,0.1 -10.48,3.6 -12.27,8.77 0,0 -2.4,0 -2.4,0 -2.65,0 -9.52,1.86 -9.52,10.39 0,1.17 0.95,2.11 2.11,2.11 0,0 12.75,0 12.75,0 0.14,0.01 0.31,0.01 0.47,-0.02 0.52,-0.06 7.42,-0.78 11.88,6.67 0,0 -11.44,7.71 -11.44,7.71 -0.67,0.45 -1.02,1.24 -0.91,2.04 0.11,0.8 0.66,1.47 1.43,1.72 1.1,0.37 26.94,9.41 19.57,38.81 -0.2,0.81 0.09,1.67 0.74,2.18 0.38,0.3 0.84,0.46 1.31,0.46 0.33,0 0.67,-0.08 0.98,-0.24 0.21,-0.12 16.66,-9 18.03,-27.32 0,0 0,0 0,0 z" />
</svg>
